<?xml version="1.0" encoding="utf-8"?>
<!-- Generator: Adobe Illustrator 24.0.1, SVG Export Plug-In . SVG Version: 6.00 Build 0)  -->
<svg version="1.1" id="Layer_1" xmlns="http://www.w3.org/2000/svg" xmlns:xlink="http://www.w3.org/1999/xlink" x="0px" y="0px"
	 viewBox="0 0 160 160" style="enable-background:new 0 0 160 160;" xml:space="preserve">
<style type="text/css">
	.st0{fill:#005F72;}
	.st1{fill:#0093AF;}
</style>
<g>
	<g>
		<path class="st0" d="M53.5,21.7c-1.2-1.2-3.2-0.3-3.2,1.3v114l13-105.6L53.5,21.7z"/>
		<g>
			<path class="st1" d="M90.2,58.4L63.3,31.4L50.3,137c0,2.3,3.3,2.6,3.7,0.3l13.1-73.6c0.3-1.5,2.1-2.1,3.2-1l7.8,7.8
				c0.7,0.7,1.9,0.7,2.7,0l9.5-9.5C91,60.3,91,59.1,90.2,58.4z"/>
			<path class="st1" d="M52,21.1c0,0-0.1,0-0.1,0C51.9,21.1,51.9,21.1,52,21.1z"/>
		</g>
	</g>
	<g>
		<path class="st0" d="M106.5,138.3c1.2,1.2,3.2,0.3,3.2-1.3V23l-13,105.6L106.5,138.3z"/>
		<g>
			<path class="st1" d="M69.8,101.6l26.9,26.9l13-105.6c0-2.3-3.3-2.6-3.7-0.3L92.9,96.3c-0.3,1.5-2.1,2.1-3.2,1l-7.8-7.8
				c-0.7-0.7-1.9-0.7-2.7,0L69.8,99C69,99.7,69,100.9,69.8,101.6z"/>
			<path class="st1" d="M108,138.9c0,0,0.1,0,0.1,0C108.1,138.9,108.1,138.9,108,138.9z"/>
		</g>
	</g>
</g>
</svg>
